<svg width="265" height="106" viewBox="0 0 265 106" fill="none" xmlns="http://www.w3.org/2000/svg">
<g clip-path="url(#clip0_2_15)">
<path d="M14.4 74L0.32 27.92H9.28L20.8 65.808L32.512 27.92H41.472L27.392 74H14.4ZM45.6825 34.64V26.96H54.3865V34.64H45.6825ZM45.6825 74V39.44H54.3865V74H45.6825ZM84.716 74C82.3267 74.448 79.98 74.64 77.676 74.576C75.3933 74.5333 73.3453 74.1387 71.532 73.392C69.74 72.624 68.3747 71.3973 67.436 69.712C66.5827 68.1333 66.1347 66.5333 66.092 64.912C66.0493 63.2693 66.028 61.4133 66.028 59.344V29.84H74.732V58.832C74.732 60.176 74.7427 61.392 74.764 62.48C74.8067 63.5467 75.0307 64.4 75.436 65.04C76.204 66.256 77.4307 66.9173 79.116 67.024C80.8013 67.1307 82.668 67.0453 84.716 66.768V74ZM60.14 46.16V39.44H84.716V46.16H60.14ZM109.292 74C106.903 74.448 104.556 74.64 102.252 74.576C99.9693 74.5333 97.9213 74.1387 96.108 73.392C94.316 72.624 92.9507 71.3973 92.012 69.712C91.1587 68.1333 90.7107 66.5333 90.668 64.912C90.6253 63.2693 90.604 61.4133 90.604 59.344V29.84H99.308V58.832C99.308 60.176 99.3187 61.392 99.34 62.48C99.3827 63.5467 99.6067 64.4 100.012 65.04C100.78 66.256 102.007 66.9173 103.692 67.024C105.377 67.1307 107.244 67.0453 109.292 66.768V74ZM84.716 46.16V39.44H109.292V46.16H84.716Z" fill="#3DBB4C"/>
<path d="M134.388 74.96C130.975 74.96 127.892 74.3627 125.14 73.168C122.409 71.952 120.159 70.224 118.388 67.984C116.639 65.7227 115.529 63.0347 115.06 59.92L124.148 58.576C124.788 61.2213 126.111 63.2587 128.116 64.688C130.121 66.1173 132.404 66.832 134.964 66.832C136.393 66.832 137.78 66.608 139.124 66.16C140.468 65.712 141.567 65.0507 142.42 64.176C143.295 63.3013 143.732 62.224 143.732 60.944C143.732 60.4747 143.657 60.0267 143.508 59.6C143.38 59.152 143.156 58.736 142.836 58.352C142.516 57.968 142.057 57.6053 141.46 57.264C140.884 56.9227 140.148 56.6133 139.252 56.336L127.284 52.816C126.388 52.56 125.343 52.1973 124.148 51.728C122.975 51.2587 121.833 50.5867 120.724 49.712C119.615 48.8373 118.687 47.6853 117.94 46.256C117.215 44.8053 116.852 42.9813 116.852 40.784C116.852 37.6907 117.631 35.12 119.188 33.072C120.745 31.024 122.825 29.4987 125.428 28.496C128.031 27.4933 130.911 27.0027 134.068 27.024C137.247 27.0667 140.084 27.6107 142.58 28.656C145.076 29.7013 147.167 31.2267 148.852 33.232C150.537 35.216 151.753 37.648 152.5 40.528L143.092 42.128C142.751 40.6347 142.121 39.376 141.204 38.352C140.287 37.328 139.188 36.5493 137.908 36.016C136.649 35.4827 135.327 35.1947 133.94 35.152C132.575 35.1093 131.284 35.3013 130.068 35.728C128.873 36.1333 127.892 36.7307 127.124 37.52C126.377 38.3093 126.004 39.248 126.004 40.336C126.004 41.3387 126.313 42.16 126.932 42.8C127.551 43.4187 128.329 43.92 129.268 44.304C130.207 44.688 131.167 45.008 132.148 45.264L140.148 47.44C141.343 47.76 142.665 48.1867 144.116 48.72C145.567 49.232 146.953 49.9573 148.276 50.896C149.62 51.8133 150.719 53.0293 151.572 54.544C152.447 56.0587 152.884 57.9787 152.884 60.304C152.884 62.7787 152.361 64.944 151.316 66.8C150.292 68.6347 148.905 70.16 147.156 71.376C145.407 72.5707 143.423 73.4667 141.204 74.064C139.007 74.6613 136.735 74.96 134.388 74.96ZM175.982 74.96C172.44 74.96 169.315 74.2027 166.606 72.688C163.918 71.152 161.806 69.0507 160.27 66.384C158.755 63.696 157.998 60.624 157.998 57.168C157.998 53.392 158.744 50.1067 160.238 47.312C161.731 44.5173 163.79 42.352 166.414 40.816C169.038 39.2587 172.056 38.48 175.47 38.48C179.096 38.48 182.179 39.3333 184.718 41.04C187.256 42.7467 189.134 45.1467 190.35 48.24C191.566 51.3333 191.992 54.9707 191.63 59.152H183.022V55.952C183.022 52.432 182.456 49.904 181.326 48.368C180.216 46.8107 178.392 46.032 175.854 46.032C172.888 46.032 170.702 46.9387 169.294 48.752C167.907 50.544 167.214 53.2 167.214 56.72C167.214 59.9413 167.907 62.4373 169.294 64.208C170.702 65.9573 172.76 66.832 175.47 66.832C177.176 66.832 178.638 66.4587 179.854 65.712C181.07 64.9653 181.998 63.888 182.638 62.48L191.342 64.976C190.04 68.1333 187.982 70.5867 185.166 72.336C182.371 74.0853 179.31 74.96 175.982 74.96ZM164.526 59.152V52.688H187.438V59.152H164.526ZM206.949 74L194.405 39.44H203.109L211.301 63.376L219.493 39.44H228.197L215.653 74H206.949ZM241.643 74.96C239.168 74.96 237.067 74.4907 235.339 73.552C233.632 72.592 232.331 71.3227 231.435 69.744C230.56 68.144 230.123 66.384 230.123 64.464C230.123 62.864 230.368 61.4027 230.859 60.08C231.349 58.7573 232.139 57.5947 233.227 56.592C234.336 55.568 235.819 54.7147 237.675 54.032C238.955 53.5627 240.48 53.1467 242.251 52.784C244.021 52.4213 246.027 52.08 248.267 51.76C250.507 51.4187 252.971 51.0453 255.659 50.64L252.523 52.368C252.523 50.32 252.032 48.816 251.051 47.856C250.069 46.896 248.427 46.416 246.123 46.416C244.843 46.416 243.509 46.7253 242.123 47.344C240.736 47.9627 239.765 49.0613 239.211 50.64L231.339 48.144C232.213 45.2853 233.856 42.96 236.267 41.168C238.677 39.376 241.963 38.48 246.123 38.48C249.173 38.48 251.883 38.9493 254.251 39.888C256.619 40.8267 258.411 42.448 259.627 44.752C260.309 46.032 260.715 47.312 260.843 48.592C260.971 49.872 261.035 51.3013 261.035 52.88V74H253.419V66.896L254.507 68.368C252.821 70.6933 250.997 72.3787 249.035 73.424C247.093 74.448 244.629 74.96 241.643 74.96ZM243.499 68.112C245.099 68.112 246.443 67.8347 247.531 67.28C248.64 66.704 249.515 66.0533 250.155 65.328C250.816 64.6027 251.264 63.9947 251.499 63.504C251.947 62.5653 252.203 61.4773 252.267 60.24C252.352 58.9813 252.395 57.936 252.395 57.104L254.955 57.744C252.373 58.1707 250.283 58.5333 248.683 58.832C247.083 59.1093 245.792 59.3653 244.811 59.6C243.829 59.8347 242.965 60.0907 242.219 60.368C241.365 60.7093 240.672 61.0827 240.139 61.488C239.627 61.872 239.243 62.2987 238.987 62.768C238.752 63.2373 238.635 63.76 238.635 64.336C238.635 65.1253 238.827 65.808 239.211 66.384C239.616 66.9387 240.181 67.3653 240.907 67.664C241.632 67.9627 242.496 68.112 243.499 68.112Z" fill="#10779D"/>
<path d="M36.5 15.5L44.5 17.5L41.5 28L32.5001 28L36.5 15.5Z" fill="#3DBB4C"/>
<path d="M45.4575 3.30139L48.9869 19.2264L32.1485 14.4574L45.4575 3.30139Z" fill="#3DBB4C"/>
<path d="M18.51 100.3C17.49 100.3 16.57 100.127 15.75 99.78C14.9367 99.4333 14.2633 98.94 13.73 98.3C13.2033 97.6533 12.86 96.89 12.7 96.01L14.54 95.72C14.7733 96.6267 15.2567 97.3367 15.99 97.85C16.73 98.3567 17.6 98.61 18.6 98.61C19.2467 98.61 19.83 98.51 20.35 98.31C20.8767 98.1033 21.2933 97.81 21.6 97.43C21.9067 97.05 22.06 96.6 22.06 96.08C22.06 95.76 22.0033 95.4867 21.89 95.26C21.7833 95.0267 21.6333 94.83 21.44 94.67C21.2533 94.5033 21.04 94.3633 20.8 94.25C20.56 94.1367 20.31 94.0433 20.05 93.97L16.38 92.88C15.98 92.76 15.5933 92.61 15.22 92.43C14.8467 92.2433 14.5133 92.0133 14.22 91.74C13.9267 91.46 13.6933 91.1267 13.52 90.74C13.3467 90.3467 13.26 89.8833 13.26 89.35C13.26 88.4967 13.48 87.77 13.92 87.17C14.3667 86.5633 14.97 86.1 15.73 85.78C16.49 85.46 17.3467 85.3033 18.3 85.31C19.2667 85.3167 20.13 85.49 20.89 85.83C21.6567 86.1633 22.29 86.6433 22.79 87.27C23.2967 87.8967 23.6367 88.6467 23.81 89.52L21.92 89.85C21.82 89.2633 21.5967 88.76 21.25 88.34C20.91 87.9133 20.4833 87.5867 19.97 87.36C19.4567 87.1267 18.8933 87.0067 18.28 87C17.6933 86.9933 17.1633 87.0867 16.69 87.28C16.2167 87.4733 15.84 87.7433 15.56 88.09C15.28 88.43 15.14 88.8233 15.14 89.27C15.14 89.71 15.2667 90.0667 15.52 90.34C15.7733 90.6067 16.0833 90.82 16.45 90.98C16.8233 91.1333 17.1867 91.26 17.54 91.36L20.28 92.15C20.5933 92.2367 20.9533 92.3567 21.36 92.51C21.7733 92.6633 22.1733 92.88 22.56 93.16C22.9467 93.4333 23.2667 93.8 23.52 94.26C23.7733 94.7133 23.9 95.2867 23.9 95.98C23.9 96.6733 23.76 97.29 23.48 97.83C23.2067 98.37 22.8233 98.8233 22.33 99.19C21.8367 99.55 21.2633 99.8233 20.61 100.01C19.9567 100.203 19.2567 100.3 18.51 100.3ZM26.1977 87.29V85.45H27.9777V87.29H26.1977ZM26.1977 100V89.2H27.9777V100H26.1977ZM43.8881 100L43.8981 93.09C43.8981 92.2833 43.6815 91.6533 43.2481 91.2C42.8215 90.74 42.2648 90.51 41.5781 90.51C41.1781 90.51 40.7981 90.6033 40.4381 90.79C40.0781 90.97 39.7848 91.2567 39.5581 91.65C39.3315 92.0367 39.2181 92.5333 39.2181 93.14L38.2781 92.76C38.2648 91.9933 38.4215 91.3233 38.7481 90.75C39.0815 90.17 39.5348 89.72 40.1081 89.4C40.6815 89.08 41.3281 88.92 42.0481 88.92C43.1748 88.92 44.0615 89.2633 44.7081 89.95C45.3548 90.63 45.6781 91.5467 45.6781 92.7L45.6681 100H43.8881ZM30.9681 100V89.2H32.5581V92.09H32.7581V100H30.9681ZM37.4381 100L37.4481 93.16C37.4481 92.3333 37.2348 91.6867 36.8081 91.22C36.3815 90.7467 35.8148 90.51 35.1081 90.51C34.4081 90.51 33.8415 90.75 33.4081 91.23C32.9748 91.71 32.7581 92.3467 32.7581 93.14L31.8181 92.58C31.8181 91.88 31.9848 91.2533 32.3181 90.7C32.6515 90.1467 33.1048 89.7133 33.6781 89.4C34.2515 89.08 34.9015 88.92 35.6281 88.92C36.3548 88.92 36.9881 89.0733 37.5281 89.38C38.0681 89.6867 38.4848 90.1267 38.7781 90.7C39.0715 91.2667 39.2181 91.9433 39.2181 92.73L39.2081 100H37.4381ZM53.2428 100.3C52.2295 100.3 51.3761 100.05 50.6828 99.55C49.9895 99.0433 49.4628 98.36 49.1028 97.5C48.7495 96.6333 48.5728 95.6633 48.5728 94.59C48.5728 93.5033 48.7495 92.53 49.1028 91.67C49.4628 90.81 49.9895 90.1333 50.6828 89.64C51.3828 89.1467 52.2395 88.9 53.2528 88.9C54.2528 88.9 55.1128 89.15 55.8328 89.65C56.5595 90.1433 57.1161 90.82 57.5028 91.68C57.8895 92.54 58.0828 93.51 58.0828 94.59C58.0828 95.67 57.8895 96.64 57.5028 97.5C57.1161 98.36 56.5595 99.0433 55.8328 99.55C55.1128 100.05 54.2495 100.3 53.2428 100.3ZM48.2728 104.8V89.2H49.8628V97.15H50.0628V104.8H48.2728ZM53.0228 98.67C53.7361 98.67 54.3261 98.49 54.7928 98.13C55.2595 97.77 55.6095 97.2833 55.8428 96.67C56.0761 96.05 56.1928 95.3567 56.1928 94.59C56.1928 93.83 56.0761 93.1433 55.8428 92.53C55.6161 91.9167 55.2628 91.43 54.7828 91.07C54.3095 90.71 53.7061 90.53 52.9728 90.53C52.2728 90.53 51.6928 90.7033 51.2328 91.05C50.7728 91.39 50.4295 91.8667 50.2028 92.48C49.9761 93.0867 49.8628 93.79 49.8628 94.59C49.8628 95.3767 49.9728 96.08 50.1928 96.7C50.4195 97.3133 50.7661 97.7967 51.2328 98.15C51.6995 98.4967 52.2961 98.67 53.0228 98.67ZM60.475 100V85.3H62.255V100H60.475ZM69.9355 100.3C68.8755 100.3 67.9488 100.067 67.1555 99.6C66.3688 99.1267 65.7555 98.47 65.3155 97.63C64.8755 96.7833 64.6555 95.7967 64.6555 94.67C64.6555 93.49 64.8721 92.47 65.3055 91.61C65.7388 90.7433 66.3421 90.0767 67.1155 89.61C67.8955 89.1367 68.8088 88.9 69.8555 88.9C70.9421 88.9 71.8655 89.15 72.6255 89.65C73.3921 90.15 73.9655 90.8633 74.3455 91.79C74.7321 92.7167 74.8988 93.82 74.8455 95.1H73.0455V94.46C73.0255 93.1333 72.7555 92.1433 72.2355 91.49C71.7155 90.83 70.9421 90.5 69.9155 90.5C68.8155 90.5 67.9788 90.8533 67.4055 91.56C66.8321 92.2667 66.5455 93.28 66.5455 94.6C66.5455 95.8733 66.8321 96.86 67.4055 97.56C67.9788 98.26 68.7955 98.61 69.8555 98.61C70.5688 98.61 71.1888 98.4467 71.7155 98.12C72.2421 97.7933 72.6555 97.3233 72.9555 96.71L74.6655 97.3C74.2455 98.2533 73.6121 98.9933 72.7655 99.52C71.9255 100.04 70.9821 100.3 69.9355 100.3ZM65.9455 95.1V93.67H73.9255V95.1H65.9455Z" fill="#383838"/>
<line x1="84.5" y1="82.5" x2="84.5" y2="102.5" stroke="#AEAEAE"/>
<path d="M99.32 100.3C97.8867 100.3 96.67 99.9833 95.67 99.35C94.67 98.7167 93.9067 97.8367 93.38 96.71C92.86 95.5833 92.6 94.28 92.6 92.8C92.6 91.32 92.86 90.0167 93.38 88.89C93.9067 87.7633 94.67 86.8833 95.67 86.25C96.67 85.6167 97.8867 85.3 99.32 85.3C100.76 85.3 101.98 85.6167 102.98 86.25C103.98 86.8833 104.74 87.7633 105.26 88.89C105.78 90.0167 106.04 91.32 106.04 92.8C106.04 94.28 105.78 95.5833 105.26 96.71C104.74 97.8367 103.98 98.7167 102.98 99.35C101.98 99.9833 100.76 100.3 99.32 100.3ZM99.32 98.6C100.393 98.6067 101.287 98.3667 102 97.88C102.72 97.3867 103.257 96.7033 103.61 95.83C103.97 94.9567 104.15 93.9467 104.15 92.8C104.15 91.6467 103.97 90.6367 103.61 89.77C103.257 88.9033 102.72 88.2267 102 87.74C101.287 87.2533 100.393 87.0067 99.32 87C98.2467 86.9933 97.3533 87.2333 96.64 87.72C95.9333 88.2067 95.4 88.8867 95.04 89.76C94.68 90.6333 94.4967 91.6467 94.49 92.8C94.4833 93.9467 94.66 94.9533 95.02 95.82C95.38 96.6867 95.9167 97.3667 96.63 97.86C97.35 98.3467 98.2467 98.5933 99.32 98.6ZM113.008 100.3C111.995 100.3 111.142 100.05 110.448 99.55C109.755 99.0433 109.228 98.36 108.868 97.5C108.515 96.6333 108.338 95.6633 108.338 94.59C108.338 93.5033 108.515 92.53 108.868 91.67C109.228 90.81 109.755 90.1333 110.448 89.64C111.148 89.1467 112.005 88.9 113.018 88.9C114.018 88.9 114.878 89.15 115.598 89.65C116.325 90.1433 116.882 90.82 117.268 91.68C117.655 92.54 117.848 93.51 117.848 94.59C117.848 95.67 117.655 96.64 117.268 97.5C116.882 98.36 116.325 99.0433 115.598 99.55C114.878 100.05 114.015 100.3 113.008 100.3ZM108.038 104.8V89.2H109.628V97.15H109.828V104.8H108.038ZM112.788 98.67C113.502 98.67 114.092 98.49 114.558 98.13C115.025 97.77 115.375 97.2833 115.608 96.67C115.842 96.05 115.958 95.3567 115.958 94.59C115.958 93.83 115.842 93.1433 115.608 92.53C115.382 91.9167 115.028 91.43 114.548 91.07C114.075 90.71 113.472 90.53 112.738 90.53C112.038 90.53 111.458 90.7033 110.998 91.05C110.538 91.39 110.195 91.8667 109.968 92.48C109.742 93.0867 109.628 93.79 109.628 94.59C109.628 95.3767 109.738 96.08 109.958 96.7C110.185 97.3133 110.532 97.7967 110.998 98.15C111.465 98.4967 112.062 98.67 112.788 98.67ZM126.071 100C125.431 100.127 124.797 100.177 124.171 100.15C123.551 100.13 122.997 100.007 122.511 99.78C122.024 99.5467 121.654 99.1867 121.401 98.7C121.187 98.2733 121.071 97.8433 121.051 97.41C121.037 96.97 121.031 96.4733 121.031 95.92V86.2H122.811V95.84C122.811 96.28 122.814 96.6567 122.821 96.97C122.834 97.2833 122.904 97.5533 123.031 97.78C123.271 98.2067 123.651 98.4567 124.171 98.53C124.697 98.6033 125.331 98.5833 126.071 98.47V100ZM118.841 90.67V89.2H126.071V90.67H118.841ZM128.463 87.29V85.45H130.243V87.29H128.463ZM128.463 100V89.2H130.243V100H128.463ZM146.154 100L146.164 93.09C146.164 92.2833 145.947 91.6533 145.514 91.2C145.087 90.74 144.53 90.51 143.844 90.51C143.444 90.51 143.064 90.6033 142.704 90.79C142.344 90.97 142.05 91.2567 141.824 91.65C141.597 92.0367 141.484 92.5333 141.484 93.14L140.544 92.76C140.53 91.9933 140.687 91.3233 141.014 90.75C141.347 90.17 141.8 89.72 142.374 89.4C142.947 89.08 143.594 88.92 144.314 88.92C145.44 88.92 146.327 89.2633 146.974 89.95C147.62 90.63 147.944 91.5467 147.944 92.7L147.934 100H146.154ZM133.234 100V89.2H134.824V92.09H135.024V100H133.234ZM139.704 100L139.714 93.16C139.714 92.3333 139.5 91.6867 139.074 91.22C138.647 90.7467 138.08 90.51 137.374 90.51C136.674 90.51 136.107 90.75 135.674 91.23C135.24 91.71 135.024 92.3467 135.024 93.14L134.084 92.58C134.084 91.88 134.25 91.2533 134.584 90.7C134.917 90.1467 135.37 89.7133 135.944 89.4C136.517 89.08 137.167 88.92 137.894 88.92C138.62 88.92 139.254 89.0733 139.794 89.38C140.334 89.6867 140.75 90.1267 141.044 90.7C141.337 91.2667 141.484 91.9433 141.484 92.73L141.474 100H139.704ZM153.618 100.3C152.812 100.3 152.135 100.153 151.588 99.86C151.048 99.56 150.638 99.1667 150.358 98.68C150.085 98.1933 149.948 97.66 149.948 97.08C149.948 96.5133 150.055 96.0233 150.268 95.61C150.488 95.19 150.795 94.8433 151.188 94.57C151.582 94.29 152.052 94.07 152.598 93.91C153.112 93.77 153.685 93.65 154.318 93.55C154.958 93.4433 155.605 93.3467 156.258 93.26C156.912 93.1733 157.522 93.09 158.088 93.01L157.448 93.38C157.468 92.42 157.275 91.71 156.868 91.25C156.468 90.79 155.775 90.56 154.788 90.56C154.135 90.56 153.562 90.71 153.068 91.01C152.582 91.3033 152.238 91.7833 152.038 92.45L150.348 91.94C150.608 90.9933 151.112 90.25 151.858 89.71C152.605 89.17 153.588 88.9 154.808 88.9C155.788 88.9 156.628 89.0767 157.328 89.43C158.035 89.7767 158.542 90.3033 158.848 91.01C159.002 91.3433 159.098 91.7067 159.138 92.1C159.178 92.4867 159.198 92.8933 159.198 93.32V100H157.618V97.41L157.988 97.65C157.582 98.5233 157.012 99.1833 156.278 99.63C155.552 100.077 154.665 100.3 153.618 100.3ZM153.888 98.81C154.528 98.81 155.082 98.6967 155.548 98.47C156.022 98.2367 156.402 97.9333 156.688 97.56C156.975 97.18 157.162 96.7667 157.248 96.32C157.348 95.9867 157.402 95.6167 157.408 95.21C157.422 94.7967 157.428 94.48 157.428 94.26L158.048 94.53C157.468 94.61 156.898 94.6867 156.338 94.76C155.778 94.8333 155.248 94.9133 154.748 95C154.248 95.08 153.798 95.1767 153.398 95.29C153.105 95.3833 152.828 95.5033 152.568 95.65C152.315 95.7967 152.108 95.9867 151.948 96.22C151.795 96.4467 151.718 96.73 151.718 97.07C151.718 97.3633 151.792 97.6433 151.938 97.91C152.092 98.1767 152.325 98.3933 152.638 98.56C152.958 98.7267 153.375 98.81 153.888 98.81ZM161.998 100V85.3H163.778V100H161.998Z" fill="#383838"/>
<line x1="174.5" y1="82.5" x2="174.5" y2="102.5" stroke="#AEAEAE"/>
<path d="M183.4 100V85.6H189.09C189.23 85.6 189.397 85.6067 189.59 85.62C189.783 85.6267 189.97 85.6467 190.15 85.68C190.93 85.8 191.583 86.0667 192.11 86.48C192.643 86.8933 193.043 87.4167 193.31 88.05C193.577 88.6767 193.71 89.3733 193.71 90.14C193.71 90.9 193.573 91.5967 193.3 92.23C193.033 92.8567 192.633 93.38 192.1 93.8C191.573 94.2133 190.923 94.48 190.15 94.6C189.97 94.6267 189.783 94.6467 189.59 94.66C189.397 94.6733 189.23 94.68 189.09 94.68H185.18V100H183.4ZM185.18 92.99H189.03C189.157 92.99 189.3 92.9833 189.46 92.97C189.627 92.9567 189.783 92.9333 189.93 92.9C190.39 92.7933 190.763 92.6 191.05 92.32C191.343 92.0333 191.557 91.7 191.69 91.32C191.823 90.9333 191.89 90.54 191.89 90.14C191.89 89.74 191.823 89.35 191.69 88.97C191.557 88.5833 191.343 88.2467 191.05 87.96C190.763 87.6733 190.39 87.48 189.93 87.38C189.783 87.34 189.627 87.3167 189.46 87.31C189.3 87.2967 189.157 87.29 189.03 87.29H185.18V92.99ZM200.287 100.3C199.227 100.3 198.3 100.067 197.507 99.6C196.72 99.1267 196.107 98.47 195.667 97.63C195.227 96.7833 195.007 95.7967 195.007 94.67C195.007 93.49 195.224 92.47 195.657 91.61C196.09 90.7433 196.694 90.0767 197.467 89.61C198.247 89.1367 199.16 88.9 200.207 88.9C201.294 88.9 202.217 89.15 202.977 89.65C203.744 90.15 204.317 90.8633 204.697 91.79C205.084 92.7167 205.25 93.82 205.197 95.1H203.397V94.46C203.377 93.1333 203.107 92.1433 202.587 91.49C202.067 90.83 201.294 90.5 200.267 90.5C199.167 90.5 198.33 90.8533 197.757 91.56C197.184 92.2667 196.897 93.28 196.897 94.6C196.897 95.8733 197.184 96.86 197.757 97.56C198.33 98.26 199.147 98.61 200.207 98.61C200.92 98.61 201.54 98.4467 202.067 98.12C202.594 97.7933 203.007 97.3233 203.307 96.71L205.017 97.3C204.597 98.2533 203.964 98.9933 203.117 99.52C202.277 100.04 201.334 100.3 200.287 100.3ZM196.297 95.1V93.67H204.277V95.1H196.297ZM207.423 100V89.2H209.013V91.81L208.753 91.47C208.88 91.1367 209.043 90.83 209.243 90.55C209.45 90.27 209.68 90.04 209.933 89.86C210.213 89.6333 210.53 89.46 210.883 89.34C211.237 89.22 211.597 89.15 211.963 89.13C212.33 89.1033 212.673 89.1267 212.993 89.2V90.87C212.62 90.77 212.21 90.7433 211.763 90.79C211.317 90.8367 210.903 91 210.523 91.28C210.177 91.5267 209.907 91.8267 209.713 92.18C209.527 92.5333 209.397 92.9167 209.323 93.33C209.25 93.7367 209.213 94.1533 209.213 94.58V100H207.423ZM218.574 100.29C217.287 100.29 216.23 100.01 215.404 99.45C214.584 98.8833 214.08 98.0933 213.894 97.08L215.714 96.79C215.86 97.3767 216.197 97.8433 216.724 98.19C217.25 98.53 217.904 98.7 218.684 98.7C219.424 98.7 220.004 98.5467 220.424 98.24C220.844 97.9333 221.054 97.5167 221.054 96.99C221.054 96.6833 220.984 96.4367 220.844 96.25C220.704 96.0567 220.414 95.8767 219.974 95.71C219.54 95.5433 218.884 95.3433 218.004 95.11C217.05 94.8567 216.3 94.5933 215.754 94.32C215.207 94.0467 214.817 93.73 214.584 93.37C214.35 93.01 214.234 92.5733 214.234 92.06C214.234 91.4267 214.407 90.8733 214.754 90.4C215.1 89.92 215.584 89.55 216.204 89.29C216.83 89.03 217.557 88.9 218.384 88.9C219.204 88.9 219.937 89.03 220.584 89.29C221.23 89.55 221.75 89.92 222.144 90.4C222.544 90.8733 222.78 91.4267 222.854 92.06L221.034 92.39C220.947 91.81 220.667 91.3533 220.194 91.02C219.727 90.6867 219.124 90.51 218.384 90.49C217.684 90.4633 217.114 90.5867 216.674 90.86C216.24 91.1333 216.024 91.5033 216.024 91.97C216.024 92.23 216.104 92.4533 216.264 92.64C216.43 92.8267 216.734 93.0033 217.174 93.17C217.62 93.3367 218.267 93.5267 219.114 93.74C220.067 93.98 220.817 94.2433 221.364 94.53C221.917 94.81 222.31 95.1433 222.544 95.53C222.777 95.91 222.894 96.38 222.894 96.94C222.894 97.98 222.51 98.8 221.744 99.4C220.977 99.9933 219.92 100.29 218.574 100.29ZM229.699 100.3C228.626 100.3 227.699 100.057 226.919 99.57C226.146 99.0833 225.549 98.41 225.129 97.55C224.709 96.69 224.499 95.7033 224.499 94.59C224.499 93.4567 224.713 92.4633 225.139 91.61C225.566 90.7567 226.169 90.0933 226.949 89.62C227.729 89.14 228.646 88.9 229.699 88.9C230.779 88.9 231.709 89.1433 232.489 89.63C233.269 90.11 233.866 90.78 234.279 91.64C234.699 92.4933 234.909 93.4767 234.909 94.59C234.909 95.7167 234.699 96.71 234.279 97.57C233.859 98.4233 233.259 99.0933 232.479 99.58C231.699 100.06 230.773 100.3 229.699 100.3ZM229.699 98.61C230.819 98.61 231.653 98.2367 232.199 97.49C232.746 96.7433 233.019 95.7767 233.019 94.59C233.019 93.37 232.743 92.4 232.189 91.68C231.636 90.9533 230.806 90.59 229.699 90.59C228.946 90.59 228.326 90.76 227.839 91.1C227.353 91.44 226.989 91.91 226.749 92.51C226.509 93.11 226.389 93.8033 226.389 94.59C226.389 95.8033 226.669 96.7767 227.229 97.51C227.789 98.2433 228.613 98.61 229.699 98.61ZM244.801 100V94.59C244.801 94.0767 244.754 93.5833 244.661 93.11C244.574 92.6367 244.418 92.2133 244.191 91.84C243.971 91.46 243.671 91.16 243.291 90.94C242.918 90.72 242.444 90.61 241.871 90.61C241.424 90.61 241.018 90.6867 240.651 90.84C240.291 90.9867 239.981 91.2133 239.721 91.52C239.461 91.8267 239.258 92.2133 239.111 92.68C238.971 93.14 238.901 93.6833 238.901 94.31L237.731 93.95C237.731 92.9033 237.918 92.0067 238.291 91.26C238.671 90.5067 239.201 89.93 239.881 89.53C240.568 89.1233 241.374 88.92 242.301 88.92C243.001 88.92 243.598 89.03 244.091 89.25C244.584 89.47 244.994 89.7633 245.321 90.13C245.648 90.49 245.904 90.8967 246.091 91.35C246.278 91.7967 246.408 92.2533 246.481 92.72C246.561 93.18 246.601 93.6167 246.601 94.03V100H244.801ZM237.101 100V89.2H238.701V92.09H238.901V100H237.101ZM252.271 100.3C251.464 100.3 250.787 100.153 250.241 99.86C249.701 99.56 249.291 99.1667 249.011 98.68C248.737 98.1933 248.601 97.66 248.601 97.08C248.601 96.5133 248.707 96.0233 248.921 95.61C249.141 95.19 249.447 94.8433 249.841 94.57C250.234 94.29 250.704 94.07 251.251 93.91C251.764 93.77 252.337 93.65 252.971 93.55C253.611 93.4433 254.257 93.3467 254.911 93.26C255.564 93.1733 256.174 93.09 256.741 93.01L256.101 93.38C256.121 92.42 255.927 91.71 255.521 91.25C255.121 90.79 254.427 90.56 253.441 90.56C252.787 90.56 252.214 90.71 251.721 91.01C251.234 91.3033 250.891 91.7833 250.691 92.45L249.001 91.94C249.261 90.9933 249.764 90.25 250.511 89.71C251.257 89.17 252.241 88.9 253.461 88.9C254.441 88.9 255.281 89.0767 255.981 89.43C256.687 89.7767 257.194 90.3033 257.501 91.01C257.654 91.3433 257.751 91.7067 257.791 92.1C257.831 92.4867 257.851 92.8933 257.851 93.32V100H256.271V97.41L256.641 97.65C256.234 98.5233 255.664 99.1833 254.931 99.63C254.204 100.077 253.317 100.3 252.271 100.3ZM252.541 98.81C253.181 98.81 253.734 98.6967 254.201 98.47C254.674 98.2367 255.054 97.9333 255.341 97.56C255.627 97.18 255.814 96.7667 255.901 96.32C256.001 95.9867 256.054 95.6167 256.061 95.21C256.074 94.7967 256.081 94.48 256.081 94.26L256.701 94.53C256.121 94.61 255.551 94.6867 254.991 94.76C254.431 94.8333 253.901 94.9133 253.401 95C252.901 95.08 252.451 95.1767 252.051 95.29C251.757 95.3833 251.481 95.5033 251.221 95.65C250.967 95.7967 250.761 95.9867 250.601 96.22C250.447 96.4467 250.371 96.73 250.371 97.07C250.371 97.3633 250.444 97.6433 250.591 97.91C250.744 98.1767 250.977 98.3933 251.291 98.56C251.611 98.7267 252.027 98.81 252.541 98.81ZM260.651 100V85.3H262.431V100H260.651Z" fill="#383838"/>
</g>
<defs>
<clipPath id="clip0_2_15">
<rect width="265" height="105" fill="white" transform="translate(0 0.197266)"/>
</clipPath>
</defs>
</svg>
